<mxfile host="app.diagrams.net" agent="Mozilla/5.0 (Windows NT 10.0; Win64; x64) AppleWebKit/537.36 (KHTML, like Gecko) Chrome/131.0.0.0 Safari/537.36 OPR/116.0.0.0" version="26.0.11">
  <diagram name="Página-1" id="tIZhdvQNbZ7bEW3BkpiP">
    <mxGraphModel dx="2459" dy="1922" grid="1" gridSize="10" guides="1" tooltips="1" connect="1" arrows="1" fold="1" page="1" pageScale="1" pageWidth="827" pageHeight="1169" math="0" shadow="0">
      <root>
        <mxCell id="0" />
        <mxCell id="1" parent="0" />
        <mxCell id="gk-17GvAa4D1x0TPYQi8-12" value="" style="edgeStyle=orthogonalEdgeStyle;rounded=0;orthogonalLoop=1;jettySize=auto;html=1;" edge="1" parent="1" source="gk-17GvAa4D1x0TPYQi8-1" target="gk-17GvAa4D1x0TPYQi8-7">
          <mxGeometry relative="1" as="geometry" />
        </mxCell>
        <mxCell id="gk-17GvAa4D1x0TPYQi8-15" value="" style="edgeStyle=orthogonalEdgeStyle;rounded=0;orthogonalLoop=1;jettySize=auto;html=1;" edge="1" parent="1" source="gk-17GvAa4D1x0TPYQi8-1" target="gk-17GvAa4D1x0TPYQi8-14">
          <mxGeometry relative="1" as="geometry" />
        </mxCell>
        <mxCell id="gk-17GvAa4D1x0TPYQi8-1" value="Realiza Empréstimo" style="ellipse;whiteSpace=wrap;html=1;" vertex="1" parent="1">
          <mxGeometry x="190" y="50" width="120" height="80" as="geometry" />
        </mxCell>
        <mxCell id="gk-17GvAa4D1x0TPYQi8-11" value="" style="edgeStyle=orthogonalEdgeStyle;rounded=0;orthogonalLoop=1;jettySize=auto;html=1;" edge="1" parent="1" source="gk-17GvAa4D1x0TPYQi8-2" target="gk-17GvAa4D1x0TPYQi8-1">
          <mxGeometry relative="1" as="geometry" />
        </mxCell>
        <mxCell id="gk-17GvAa4D1x0TPYQi8-2" value="Funcionário Biblioteca" style="shape=umlActor;verticalLabelPosition=bottom;verticalAlign=top;html=1;outlineConnect=0;" vertex="1" parent="1">
          <mxGeometry x="60" y="60" width="30" height="60" as="geometry" />
        </mxCell>
        <mxCell id="gk-17GvAa4D1x0TPYQi8-6" value="Valida a data limite do empréstimo" style="ellipse;whiteSpace=wrap;html=1;" vertex="1" parent="1">
          <mxGeometry x="500" y="50" width="140" height="80" as="geometry" />
        </mxCell>
        <mxCell id="gk-17GvAa4D1x0TPYQi8-13" value="" style="edgeStyle=orthogonalEdgeStyle;rounded=0;orthogonalLoop=1;jettySize=auto;html=1;" edge="1" parent="1" source="gk-17GvAa4D1x0TPYQi8-7" target="gk-17GvAa4D1x0TPYQi8-6">
          <mxGeometry relative="1" as="geometry" />
        </mxCell>
        <mxCell id="gk-17GvAa4D1x0TPYQi8-7" value="Sistema" style="shape=umlActor;verticalLabelPosition=bottom;verticalAlign=top;html=1;outlineConnect=0;" vertex="1" parent="1">
          <mxGeometry x="384" y="60" width="30" height="60" as="geometry" />
        </mxCell>
        <mxCell id="gk-17GvAa4D1x0TPYQi8-19" value="" style="edgeStyle=orthogonalEdgeStyle;rounded=0;orthogonalLoop=1;jettySize=auto;html=1;" edge="1" parent="1" source="gk-17GvAa4D1x0TPYQi8-14" target="gk-17GvAa4D1x0TPYQi8-18">
          <mxGeometry relative="1" as="geometry" />
        </mxCell>
        <mxCell id="gk-17GvAa4D1x0TPYQi8-14" value="Sistema" style="shape=umlActor;verticalLabelPosition=bottom;verticalAlign=top;html=1;outlineConnect=0;" vertex="1" parent="1">
          <mxGeometry x="235" y="200" width="30" height="60" as="geometry" />
        </mxCell>
        <mxCell id="gk-17GvAa4D1x0TPYQi8-29" value="" style="edgeStyle=orthogonalEdgeStyle;rounded=0;orthogonalLoop=1;jettySize=auto;html=1;" edge="1" parent="1" source="gk-17GvAa4D1x0TPYQi8-16" target="gk-17GvAa4D1x0TPYQi8-20">
          <mxGeometry relative="1" as="geometry">
            <mxPoint x="-255" y="230" as="targetPoint" />
          </mxGeometry>
        </mxCell>
        <mxCell id="gk-17GvAa4D1x0TPYQi8-16" value="Mostra data de entrega" style="ellipse;whiteSpace=wrap;html=1;" vertex="1" parent="1">
          <mxGeometry x="-315" y="350" width="120" height="80" as="geometry" />
        </mxCell>
        <mxCell id="gk-17GvAa4D1x0TPYQi8-27" value="" style="edgeStyle=orthogonalEdgeStyle;rounded=0;orthogonalLoop=1;jettySize=auto;html=1;entryX=1;entryY=0.5;entryDx=0;entryDy=0;" edge="1" parent="1" source="gk-17GvAa4D1x0TPYQi8-18" target="gk-17GvAa4D1x0TPYQi8-16">
          <mxGeometry relative="1" as="geometry">
            <mxPoint x="50" y="390" as="targetPoint" />
          </mxGeometry>
        </mxCell>
        <mxCell id="gk-17GvAa4D1x0TPYQi8-18" value="Valida os dados inseridos" style="ellipse;whiteSpace=wrap;html=1;" vertex="1" parent="1">
          <mxGeometry x="190" y="350" width="120" height="80" as="geometry" />
        </mxCell>
        <mxCell id="gk-17GvAa4D1x0TPYQi8-25" value="" style="edgeStyle=orthogonalEdgeStyle;rounded=0;orthogonalLoop=1;jettySize=auto;html=1;" edge="1" parent="1" source="gk-17GvAa4D1x0TPYQi8-20" target="gk-17GvAa4D1x0TPYQi8-22">
          <mxGeometry relative="1" as="geometry" />
        </mxCell>
        <mxCell id="gk-17GvAa4D1x0TPYQi8-20" value="Aluno" style="shape=umlActor;verticalLabelPosition=bottom;verticalAlign=top;html=1;outlineConnect=0;" vertex="1" parent="1">
          <mxGeometry x="-270" y="60" width="30" height="60" as="geometry" />
        </mxCell>
        <mxCell id="gk-17GvAa4D1x0TPYQi8-23" value="" style="edgeStyle=orthogonalEdgeStyle;rounded=0;orthogonalLoop=1;jettySize=auto;html=1;" edge="1" parent="1" source="gk-17GvAa4D1x0TPYQi8-22" target="gk-17GvAa4D1x0TPYQi8-2">
          <mxGeometry relative="1" as="geometry" />
        </mxCell>
        <mxCell id="gk-17GvAa4D1x0TPYQi8-22" value="Solicita o empréstimo" style="ellipse;whiteSpace=wrap;html=1;" vertex="1" parent="1">
          <mxGeometry x="-150" y="50" width="130" height="80" as="geometry" />
        </mxCell>
        <mxCell id="gk-17GvAa4D1x0TPYQi8-30" value="Valida a data limite do empréstimo" style="ellipse;whiteSpace=wrap;html=1;" vertex="1" parent="1">
          <mxGeometry x="500" y="-130" width="140" height="80" as="geometry" />
        </mxCell>
      </root>
    </mxGraphModel>
  </diagram>
</mxfile>
